# xmcd
# 
# Track frame offsets:
#     150
#     13305
#     26700
#     42847
#     61375
#     76050
#     91025
#     106847
#     122537
#     139392
#     158055
#     173452
#     191225
#     209117
#     228675
#     247885
#     269882
#     294497
#     313325
#     334632
# 
# Disc length: 4723
# 
# Revision: 11
# Processed by: cddbd v1.5.2PL0 Copyright (c) Steve Scherf et al.
# Submitted via: fre:ac v1.0.17
# 
DISCID=22127114
DTITLE=Eddy Mitchell - Eddy Lover
DYEAR=1998
DGENRE=Slow Rock
TTITLE0=Sur la route de Memphis
TTITLE1=La fille du motel
TTITLE2=La dernière séance
TTITLE3=Le chanteur du dancing
TTITLE4=Un barman
TTITLE5=Tu peux préparer le café noir
TTITLE6=Couleur menthe à l'eau
TTITLE7=Y'a rien qui remplace un amour
TTITLE8=Pauvre baby doll
TTITLE9=Le cimetière des éléphants
TTITLE10=Le blues du blanc
TTITLE11=Comme quand j'étais môme
TTITLE12=M'man
TTITLE13=Le baby blues
TTITLE14=Under the rainbow
TTITLE15=Rio Grande
TTITLE16=Coeur solitaire
TTITLE17=Te perdre
TTITLE18=Un portrait de Norman Rockwell
TTITLE19=Ce qui ne va pas chez toi
EXTD=YEAR: 1998
EXTT0=
EXTT1=
EXTT2=
EXTT3=
EXTT4=
EXTT5=
EXTT6=
EXTT7=
EXTT8=
EXTT9=
EXTT10=
EXTT11=
EXTT12=
EXTT13=
EXTT14=
EXTT15=
EXTT16=
EXTT17=
EXTT18=
EXTT19=
PLAYORDER=
